<svg xmlns="http://www.w3.org/2000/svg" fill="none" viewBox="0 0 73 46" height="46" width="73" xmlns:xlink="http://www.w3.org/1999/xlink">
<g clip-path="url(#clip0_2701_1734)">
<path fill="#972020" d="M72.926 12.3616C72.5859 12.0647 72.2708 11.734 71.8595 11.5313C71.7745 11.423 71.6433 11.4107 71.5268 11.3664C71.3895 11.2742 71.235 11.212 71.0731 11.1836C69.8842 10.8725 68.6283 10.9661 67.4965 11.4503C67.3302 11.5061 67.1741 11.5895 67.0344 11.6972C67.0196 11.6952 67.0045 11.6979 66.9913 11.705C66.978 11.7121 66.9673 11.7232 66.9605 11.7368C66.71 11.862 66.4751 12.0173 66.2609 12.1995C65.8343 12.4291 65.4701 12.7629 65.2009 13.1711C65.0562 13.3349 64.9286 13.5137 64.8201 13.7045C64.7351 13.7789 64.7046 13.893 64.6445 13.9816C64.5845 14.0701 64.517 14.1804 64.3895 14.1474C64.2619 14.1144 64.2814 13.9882 64.2666 13.8873C64.2057 13.385 64.2017 12.8771 64.2546 12.3738C64.3387 11.9856 64.4459 11.6001 64.4588 11.1987C64.5316 10.6269 64.5643 10.0506 64.5568 9.47411C64.5438 8.90867 64.5568 8.3291 64.2952 7.79948C64.1983 7.38424 63.964 7.01577 63.6317 6.75625C63.4653 6.62997 63.3119 6.48579 63.1114 6.41511C62.8092 6.22715 62.4549 6.14546 62.1028 6.18257C61.7508 6.21968 61.4204 6.37354 61.1623 6.62055C60.8501 6.8292 60.5841 7.10203 60.3814 7.42158C60.1271 7.78467 59.9542 8.20034 59.8749 8.63915C59.3666 11.128 59.5053 13.6056 60.0385 16.069C60.1309 16.493 60.2233 16.9284 60.423 17.3205C60.5034 17.6776 60.5024 17.6757 60.1827 17.8812C60.0199 17.9692 59.8669 18.0747 59.7261 18.1959C59.6207 18.2524 59.5239 18.3241 59.4387 18.4089C59.3038 18.4579 59.2141 18.5701 59.106 18.6568C58.8046 18.8266 58.5288 19.0399 58.2872 19.2901C58.0869 19.4322 57.9063 19.6011 57.7503 19.7923C57.7235 19.8206 57.6967 19.8479 57.6708 19.8762C57.4388 20.0777 57.2422 20.318 57.0895 20.5868C56.9866 20.713 56.9042 20.8552 56.8455 21.008C56.8316 21.0354 56.8178 21.0636 56.803 21.091C56.559 21.483 56.5618 21.8015 56.8113 22.138C56.8427 22.187 56.8594 22.2492 56.9222 22.2708C57.056 22.4466 57.2269 22.5893 57.4222 22.6883C57.4425 22.743 57.4952 22.7458 57.5377 22.7637C58.1386 23.0294 58.8015 23.1138 59.448 23.0068C59.9148 22.9421 60.3694 22.8058 60.7963 22.6026C61.0288 22.5155 61.2521 22.4047 61.4626 22.2718C61.5874 22.2492 61.6789 22.1596 61.787 22.105C61.8283 22.1006 61.8681 22.0868 61.9034 22.0646C61.9388 22.0424 61.9688 22.0124 61.9913 21.9768C62.4533 21.7518 62.8947 21.4849 63.3101 21.1795C63.3649 21.152 63.4177 21.1206 63.4681 21.0853C64.2435 20.4831 65.0632 19.9384 65.772 19.2495C66.0373 19.1063 66.2341 18.8848 66.4337 18.6634C66.4938 18.6068 66.5548 18.5522 66.6186 18.4947C67.7618 17.3836 68.8246 16.1962 69.8883 15.0078C70.0731 14.7967 70.2727 14.5941 70.4659 14.3877C70.4659 14.3877 70.4659 14.3877 70.4723 14.3811L70.964 13.8854L71.8651 13.1315C72.2052 12.9327 72.512 12.6792 72.914 12.5897C73.0443 12.5567 73.0092 12.4332 72.926 12.3616ZM59.8491 9.70028C59.8494 9.69747 59.8494 9.69462 59.8491 9.6918V9.70028ZM59.9738 11.766C59.9738 11.815 59.9738 11.8602 59.9738 11.913C59.9692 11.8641 59.9692 11.8149 59.9738 11.766ZM59.6855 18.6652L59.6735 18.6747L59.6818 18.6662L59.6855 18.6652ZM61.4941 6.67521L61.519 6.66296V6.67521H61.4941Z"/>
<path fill="#972020" d="M53.5972 44.2993C53.4752 44.1862 53.2849 44.1522 53.1028 44.1221C52.2636 43.9807 51.4146 43.9088 50.5641 43.9072C50.5311 43.9003 50.4978 43.8953 50.4643 43.8921C49.128 43.8117 47.7885 43.7571 46.446 43.7282C43.4757 43.6609 40.5042 43.6342 37.5315 43.6481C35.0935 43.6575 32.6547 43.6584 30.2176 43.7084L27.2409 43.7687C27.1383 43.7687 27.0367 43.763 26.9341 43.7687C24.9517 43.7847 22.9749 43.895 20.9935 43.928C20.586 43.9346 20.1701 43.9383 19.7921 44.0778C19.6782 44.0946 19.5688 44.1346 19.4705 44.1956L19.4271 44.222C19.3497 44.2209 19.2748 44.2495 19.2173 44.3021C19.1405 44.3247 19.0686 44.3622 19.0056 44.4123C18.9189 44.4443 18.8384 44.4919 18.7681 44.5528C18.6906 44.5836 18.6204 44.6308 18.562 44.6913C18.2275 44.909 17.9844 45.1625 17.9549 45.482C17.9281 45.7647 18.099 45.9004 18.5158 45.9145C18.9779 45.9296 19.4335 45.9466 19.8919 45.9532C23.3843 46.0012 26.8777 46.0022 30.371 46.0022C34.1293 46.0022 37.8898 45.9959 41.6524 45.9833C45.6115 45.9745 49.5706 45.9641 53.5298 45.9522C53.6788 45.9579 53.826 45.9175 53.9521 45.8363C54.4438 45.5093 54.4521 44.9655 53.966 44.5801C53.8644 44.4604 53.7386 44.3645 53.5972 44.2993ZM19.3836 44.2653H19.379H19.3836ZM18.8337 44.8308C18.8257 44.8452 18.815 44.858 18.8023 44.8685C18.8162 44.8647 18.8263 44.8506 18.8374 44.8383L18.8337 44.8308ZM18.4068 45.6874V45.6817V45.6874Z"/>
<path fill="#972020" d="M31.6799 14.4183C31.4027 14.8311 31.24 15.2966 31.033 15.7452C30.826 16.1938 30.8935 16.6377 31.0607 17.0778C31.1564 17.5352 31.3541 17.9641 31.6383 18.3311C31.6428 18.3524 31.6525 18.3721 31.6663 18.3886C31.6802 18.405 31.6979 18.4177 31.7178 18.4254C31.8028 18.5694 31.9157 18.6941 32.0496 18.792C32.4397 19.2057 32.8987 19.5456 33.4054 19.7956C33.4695 19.8662 33.5564 19.911 33.6503 19.9219C34.2048 20.2046 34.7981 20.2687 35.4062 20.2282C35.488 20.2211 35.5689 20.205 35.6474 20.1801C36.0171 20.0736 36.2019 19.8267 36.2158 19.4337C36.225 19.0851 36.237 18.7354 36.2324 18.3867C36.2167 17.1192 36.4006 15.8969 36.9985 14.7651C37.0585 14.7083 37.1022 14.636 37.1251 14.5559C37.2203 14.4576 37.3012 14.3459 37.3654 14.2242C37.6894 13.841 38.047 13.4886 38.4338 13.1715C38.5371 13.114 38.6328 13.043 38.7184 12.9605C38.8352 12.9223 38.9462 12.8677 39.0483 12.7984C39.1139 12.7635 39.186 12.7145 39.1685 12.6231C39.1509 12.5317 39.064 12.5185 38.9901 12.5138C38.7852 12.5054 38.5813 12.4808 38.3802 12.4403C37.2055 12.1679 36.03 12.2131 34.8563 12.4346C34.3868 12.5232 33.9173 12.6231 33.4978 12.8766C33.4774 12.8822 33.4525 12.8841 33.4571 12.9171C33.3872 12.9362 33.3191 12.9617 33.2538 12.9934C32.6407 13.3559 32.1055 13.8405 31.6799 14.4183ZM32.7113 18.9965H32.7159H32.7113ZM38.1639 12.575L38.187 12.5816C38.1741 12.5859 38.1608 12.5885 38.1473 12.5892L38.1639 12.575ZM35.7315 19.7014C35.7263 19.7046 35.7207 19.7072 35.7149 19.7089V19.7014H35.7315ZM33.6188 19.625H33.641C33.6383 19.6281 33.6362 19.6316 33.6345 19.6354L33.6188 19.6269V19.625Z"/>
<path fill="#972020" d="M44.2629 18.3276C44.3778 18.5248 44.5459 18.6841 44.7471 18.7865C45.1538 19.0259 45.6057 19.1343 46.0558 19.2445C46.1297 19.2624 46.2083 19.2681 46.2406 19.1729C46.2626 19.1508 46.2796 19.1241 46.2906 19.0947C46.3016 19.0652 46.3063 19.0338 46.3044 19.0023C46.406 18.0826 46.3681 17.1826 46.0077 16.3118C45.6904 15.5298 45.1773 14.8464 44.5198 14.33C44.45 14.2362 44.3642 14.1561 44.2666 14.0934C44.1289 14.0048 44.0439 14.0435 44.0272 14.2027C44.0032 14.4299 43.9893 14.657 43.9718 14.8841C43.9015 15.3025 43.811 15.719 43.7666 16.1394C43.7065 16.7048 43.7056 17.2702 43.9709 17.7942C44.0357 17.9885 44.1347 18.1693 44.2629 18.3276ZM45.834 16.5653C45.8374 16.5702 45.8411 16.575 45.8451 16.5794H45.834V16.5653ZM45.1713 18.7724C45.1762 18.778 45.1805 18.7839 45.1843 18.7903H45.164C45.1661 18.7846 45.1673 18.7785 45.1676 18.7724H45.1713Z"/>
<path fill="#972020" d="M13.8737 5.0474C14.1154 5.29129 14.3388 5.55338 14.5419 5.83146C14.5776 5.92738 14.6291 6.01632 14.6944 6.09439C14.7168 6.1746 14.7618 6.24634 14.8238 6.30077C14.8524 6.35543 14.8801 6.41009 14.9079 6.46475C14.9487 6.58352 15.0046 6.69631 15.0742 6.80024C15.0762 6.82676 15.0842 6.85245 15.0975 6.87533C15.1108 6.89821 15.1291 6.91766 15.1509 6.93218C15.1496 6.93827 15.15 6.94464 15.1521 6.9505C15.1542 6.95636 15.158 6.96146 15.1629 6.96516C15.2036 7.05186 15.2452 7.13762 15.2859 7.22526C15.7664 8.26754 16.0076 9.38711 16.3024 10.4897L16.6721 12.2096C16.7645 12.9635 16.8015 13.7259 16.9826 14.4657C17.0843 14.8822 17.1675 15.3072 17.3745 15.6908C17.4421 15.898 17.5353 16.0956 17.6517 16.2788C17.6596 16.2742 17.6667 16.2685 17.673 16.2618C17.6734 16.265 17.6734 16.2681 17.673 16.2713C17.6662 16.2761 17.6582 16.2788 17.6499 16.2788C17.7756 16.5003 17.8929 16.7274 18.0297 16.9385C18.2543 17.2928 18.4594 17.6632 18.769 17.9553C18.9396 18.168 19.1303 18.3631 19.3383 18.5377C19.7652 18.9909 20.2694 19.361 20.8262 19.63C20.9455 19.7072 21.0517 19.8081 21.1959 19.8307L21.3124 19.8787C21.3752 19.9325 21.4496 19.9703 21.5295 19.989C22.1073 20.187 22.709 20.3034 23.3178 20.3349C23.973 20.3829 24.6116 20.2727 25.2521 20.1407C25.6648 20.0681 26.0622 19.9234 26.4267 19.7129C26.5422 19.6526 26.6596 19.597 26.7723 19.5319C27.2178 19.2875 27.6283 18.9818 27.9922 18.6235C28.1585 18.488 28.309 18.3333 28.4405 18.1626C28.6903 17.9193 28.8995 17.636 29.0596 17.3239C29.1416 17.1863 29.2235 17.0487 29.3055 16.9112L29.5476 16.4814C29.5975 16.4579 29.6012 16.4032 29.6234 16.3627C29.9006 15.8349 30.0263 15.2516 30.1603 14.6777C30.452 13.4327 30.4879 12.1397 30.2657 10.8799C30.1551 10.1789 29.9986 9.48623 29.7971 8.80659C29.6123 8.11582 29.4219 7.42693 29.189 6.75124C28.9187 5.64639 28.7846 4.51147 28.7898 3.37276C28.7867 3.11361 28.7421 2.85672 28.6576 2.61226C28.5836 2.34898 28.4396 2.11169 28.2416 1.9266C28.0436 1.7415 27.7993 1.6158 27.5357 1.56338C26.7964 1.39846 26.1494 1.68117 25.5552 2.09771C25.4257 2.16152 25.3122 2.25468 25.2234 2.37006C24.7802 2.83695 24.4393 3.39461 24.2235 4.00605C23.805 5.21269 23.8259 6.53257 24.2826 7.72473C24.4342 8.19906 24.5861 8.6734 24.7382 9.14774C24.814 9.50867 24.8861 9.87055 24.9674 10.2296C25.2937 11.6639 25.4896 13.1011 25.0599 14.5524C24.9998 14.6607 24.9434 14.7719 24.8796 14.8794C24.5423 15.4448 23.986 15.6502 23.3779 15.4259C23.2245 15.3694 23.0803 15.2893 22.9324 15.2196C22.0785 14.5835 21.7365 13.6297 21.4094 12.6676C21.404 12.5634 21.3936 12.4596 21.378 12.3566C21.1931 11.4142 21.0166 10.4643 20.8068 9.52469C20.7183 9.05894 20.5766 8.60538 20.3845 8.1733C20.3769 8.09621 20.3484 8.02279 20.3022 7.96127C20.0589 7.32715 19.7663 6.7139 19.4271 6.12737C19.3301 5.94429 19.2116 5.77402 19.074 5.62037C18.8298 5.31054 18.5524 5.02953 18.2469 4.78258C17.7303 4.3406 17.1194 4.13893 16.4632 4.07767C15.503 3.98343 14.6362 4.34343 13.7721 4.69965C13.6519 4.7496 13.6492 4.84101 13.7305 4.93242C13.7748 4.97502 13.8227 5.0135 13.8737 5.0474ZM29.6206 8.72272C29.6211 8.7249 29.6211 8.72714 29.6206 8.72931V8.72366V8.72272ZM28.4867 3.86375H28.4783C28.4783 3.85621 28.4783 3.84867 28.4783 3.84113C28.4808 3.84881 28.4835 3.85636 28.4867 3.86375ZM24.2438 4.99462V4.98802H24.2521L24.2438 4.99462ZM24.4129 15.6889C24.4082 15.6953 24.4042 15.7023 24.4009 15.7096V15.7153L24.3686 15.7332C24.3817 15.7172 24.3973 15.7035 24.4148 15.6926L24.4129 15.6889ZM16.9586 12.9597C16.9586 12.9654 16.9586 12.9682 16.9651 12.9672C16.9854 12.9616 16.9651 12.9767 16.9531 12.972L16.9586 12.9597ZM16.5963 10.5623V10.5717L16.5908 10.5651L16.5963 10.5623Z"/>
<path fill="#972020" d="M11.6674 23.7841C11.8387 23.5387 11.9386 23.249 11.9557 22.9482C12.0592 21.6751 11.6618 20.5197 11.1415 19.3945C11.1406 19.3856 11.1366 19.3773 11.1304 19.3709C10.7414 18.5803 10.3911 17.7689 9.94288 17.015C9.49466 16.261 9.05753 15.5279 8.65921 14.7579C8.63241 14.7061 8.61948 14.6354 8.54277 14.6279C8.55341 14.6004 8.55511 14.5702 8.54762 14.5417C8.54013 14.5132 8.52385 14.4879 8.50118 14.4696L8.08808 13.6318C7.91804 13.2014 7.72585 12.7805 7.51232 12.3708C7.44423 12.1949 7.36201 12.025 7.26649 11.8629C7.20037 11.7037 7.11896 11.5515 7.02344 11.4087C6.98 11.3144 6.93657 11.2145 6.89221 11.1175C6.86677 10.9377 6.79286 10.7687 6.67872 10.6293C6.58631 10.5021 6.57614 10.3937 6.68427 10.2778L7.35429 9.94796C7.43377 9.92911 7.51417 9.91403 7.59273 9.89047C7.98566 9.76192 8.40612 9.74853 8.80616 9.85184C9.07232 9.92157 9.31075 10.0554 9.56582 10.1506L10.0464 10.5398C10.1837 10.6545 10.3077 10.7847 10.4161 10.928C11.0121 11.7602 11.3402 12.6602 11.0861 13.7072L11.0778 13.7269C10.9179 14.1428 10.6887 14.5273 10.4003 14.8635C10.3383 14.9392 10.3054 15.0353 10.3079 15.1339C10.2545 15.2615 10.2202 15.3965 10.2063 15.5345C10.0852 16.2752 10.4216 17.0885 10.9992 17.4607C11.1867 17.601 11.4012 17.6993 11.6286 17.7491C12.3559 17.9215 13.0194 17.815 13.561 17.2392C13.7645 17.0683 13.9431 16.8687 14.0915 16.6465C14.2923 16.4971 14.4515 16.297 14.5536 16.066C14.7384 15.7832 14.9574 15.5222 15.0517 15.1867L15.206 14.9285C15.3705 14.7551 15.4214 14.5327 15.4629 14.3065C15.6138 13.932 15.7046 13.5352 15.7319 13.1314C15.815 12.172 15.8141 11.223 15.4629 10.3042C15.4013 10.003 15.275 9.71951 15.0933 9.47394C15.0664 9.39676 15.0235 9.32638 14.9676 9.26755C14.9044 9.12974 14.8209 9.00262 14.7199 8.8906C14.6515 8.78034 14.5924 8.66348 14.5138 8.56076C14.2966 8.27804 14.0776 7.99532 13.7745 7.79365L13.2791 7.4167C13.2012 7.32072 13.1012 7.24592 12.988 7.199C12.1351 6.70765 11.1942 6.39554 10.2211 6.28111C9.42253 6.18575 8.61387 6.23069 7.83024 6.41399C7.4708 6.47214 7.11593 6.55654 6.76837 6.66655C6.28318 6.76079 5.8442 6.99921 5.38212 7.15471C5.07657 7.2499 4.78382 7.38349 4.51063 7.5524C4.37607 7.60332 4.24867 7.67208 4.13172 7.7569L3.72508 7.96705L3.10774 8.29877C2.89962 8.38069 2.70511 8.4948 2.53106 8.63709C2.46821 8.66819 2.39983 8.68987 2.36471 8.76054C2.25353 8.80773 2.15361 8.87876 2.07175 8.96881C2.00828 8.99076 1.95285 9.03184 1.91279 9.08661C1.42494 9.45255 0.981601 9.87647 0.592154 10.3494L0.48033 10.4851C0.248363 10.7198 0.143008 11.0289 0.0182456 11.3239C-0.0445978 11.4737 0.0468948 11.5698 0.186444 11.6188C0.265354 11.706 0.359341 11.7775 0.463695 11.8299L0.762201 12.0768L1.66326 12.9184L2.32312 13.7543C2.56957 14.245 2.81601 14.7356 3.06245 15.2263C3.06274 15.2491 3.06794 15.2715 3.07768 15.2921C3.08742 15.3126 3.10147 15.3307 3.11883 15.345C3.19424 15.5222 3.28713 15.6912 3.39608 15.8492L4.33873 17.8725C4.34959 17.9472 4.38172 18.017 4.43115 18.0733L4.54112 18.2523C4.55104 18.3132 4.58026 18.3692 4.6243 18.4116C4.82299 18.9082 5.11133 19.3596 5.31003 19.8581C5.46363 20.2448 5.64559 20.619 5.85437 20.9777C6.04474 21.3547 6.24344 21.7316 6.42458 22.1086C6.77853 22.8559 7.34874 23.4128 7.9513 23.9444C8.49102 24.4429 9.12962 24.7576 9.84954 24.7925C10.6277 24.8264 11.2561 24.4834 11.6674 23.7841ZM10.9558 17.0215H10.9632V17.0263L10.9558 17.0215ZM14.1284 16.3091H14.1238H14.1284ZM13.9233 16.4768V16.4721V16.4768ZM11.3014 17.2779C11.3014 17.2779 11.3014 17.2845 11.3014 17.2873L11.2931 17.2741L11.3014 17.2779ZM8.8958 6.41399C8.8958 6.42059 8.89118 6.42813 8.88841 6.43472C8.8805 6.43016 8.87307 6.42479 8.86623 6.4187L8.8958 6.41399ZM8.29879 6.67126H8.30433V6.67786L8.29694 6.6722L8.29879 6.67126ZM1.30099 9.73121L1.30561 9.7265C1.30807 9.72886 1.30996 9.73176 1.31116 9.73498L1.30099 9.73121ZM2.93862 14.2113H2.94509C2.94509 14.2113 2.94509 14.217 2.94509 14.2189L2.93862 14.2113ZM4.1807 16.7379V16.7332V16.7379ZM5.04479 18.9054H5.05034V18.9148L5.04479 18.9054ZM5.45513 19.7658V19.7535L5.46159 19.7639L5.45513 19.7658ZM6.79794 21.9512L6.82382 22.0011C6.81212 21.985 6.80278 21.9672 6.79609 21.9484L6.79794 21.9512ZM7.38664 23.0255H7.38109H7.38664V23.0312V23.0255ZM8.08715 14.3037L8.08161 14.2962H8.08715V14.3037Z"/>
<path fill="#972020" d="M31.1399 3.73842C31.1917 4.26522 31.261 4.79013 31.2517 5.32164C31.2135 7.6016 31.1763 9.88187 31.1399 12.1625C31.1344 12.5253 31.1399 12.8881 31.1002 13.249C31.0937 13.3103 31.0882 13.3819 31.1565 13.4149C31.2249 13.4479 31.2748 13.4008 31.3136 13.3499C31.4892 13.119 31.7055 12.9258 31.9014 12.7138C32.4365 12.2633 33.0437 11.9344 33.6629 11.6234C33.6895 11.6213 33.7159 11.6162 33.7414 11.6083C34.4669 11.2766 35.2395 11.1824 36.0204 11.1371C36.2552 11.123 36.3226 11.0551 36.3282 10.8167C36.359 9.57465 36.3898 8.33258 36.4206 7.09051C36.4465 6.00864 36.4751 4.92301 36.4899 3.84491C36.4945 3.47832 36.55 3.39351 36.916 3.42178C37.2154 3.4444 37.513 3.49529 37.8115 3.53392L38.0555 3.62251C38.1022 3.66514 38.1599 3.69326 38.2218 3.70355L38.2948 3.74596C38.5942 3.97496 38.9223 4.16815 39.1432 4.49328C39.6057 5.15236 39.8161 5.96108 39.7347 6.76727C39.7217 6.8992 39.7116 7.03114 39.6995 7.16307C39.6935 7.17114 39.6905 7.1812 39.6912 7.19135C39.6075 7.46698 39.504 7.73598 39.3816 7.99615C39.1786 8.40764 38.8597 8.74793 38.4658 8.97341C38.4196 8.99226 38.3641 8.99885 38.3484 9.06011C38.1881 9.10602 38.0354 9.17623 37.8956 9.26838C37.8787 9.26159 37.8599 9.26139 37.8428 9.26782C37.8258 9.27425 37.8117 9.28686 37.8032 9.30324C37.6041 9.41973 37.4474 9.59897 37.3568 9.81402L37.2708 9.97705C37.0768 10.2004 37.0647 10.4822 37.0333 10.7555C36.9954 11.0881 37.0555 11.1503 37.3873 11.1965C37.5351 11.2163 37.6821 11.2502 37.8281 11.2851C38.0536 11.3379 38.2736 11.418 38.5092 11.4104C38.9963 11.5593 39.4907 11.679 39.9879 11.7874C40.3012 11.8562 40.6265 11.8901 40.9241 12.0004C41.3104 12.1427 41.5775 11.9683 41.8482 11.744C42.0236 11.622 42.1878 11.4842 42.339 11.3322C42.9153 10.8648 43.3909 10.2812 43.7363 9.618C43.8389 9.50675 43.9188 9.3757 43.9711 9.23256C44.4803 8.04609 44.5838 6.81439 44.3583 5.5497C44.2474 4.93055 44.0662 4.33401 43.6975 3.81381C43.618 3.57822 43.4443 3.40482 43.3001 3.21445C42.9674 2.77718 42.6301 2.34086 42.1782 2.01856C41.6315 1.55331 41.0209 1.1723 40.3659 0.887688C40.3211 0.834252 40.2598 0.79801 40.1921 0.784968C39.73 0.613453 39.2578 0.473036 38.7809 0.345813C37.8789 0.105503 36.9575 0.0630962 36.0352 0.0282277C34.6656 -0.0188919 33.2978 -0.0254887 31.9624 0.360892C31.5622 0.475863 31.1602 0.589893 30.8164 0.844339C30.7256 0.882551 30.6427 0.938221 30.5725 1.00832C30.4736 1.04695 30.4163 1.14025 30.334 1.1968C30.1658 1.31931 30.1751 1.45972 30.2693 1.63218C30.641 2.29628 30.9333 3.0034 31.1399 3.73842ZM38.0961 9.48041C38.0936 9.48518 38.0905 9.48961 38.0869 9.49361C38.0872 9.48827 38.0872 9.48292 38.0869 9.47759H38.0998L38.0961 9.48041ZM38.6571 9.35319L38.7218 9.3155C38.716 9.32689 38.7072 9.33644 38.6965 9.34309C38.6857 9.34974 38.6734 9.35324 38.6608 9.35319H38.6571ZM39.304 8.95267L39.3188 8.94042C39.3225 8.94567 39.3265 8.95071 39.3308 8.9555L39.304 8.95267ZM35.7875 10.9826V10.9882H35.7755C35.7821 10.9881 35.7885 10.9861 35.794 10.9826H35.7875ZM31.7212 12.4565L31.7157 12.464V12.4584L31.7212 12.4565Z"/>
<path fill="#972020" d="M19.2697 41.9228C19.6745 42.0566 20.0885 42.049 20.4711 41.8078C20.8284 41.6757 21.1311 41.4239 21.3297 41.0935C21.4988 40.8352 21.6587 40.5723 21.6993 40.2547C21.8897 39.5536 21.8352 38.8515 21.6993 38.1494C21.7029 38.1442 21.7049 38.1379 21.7049 38.1315C21.7049 38.1251 21.7029 38.1189 21.6993 38.1136C21.6901 37.6999 21.5228 37.3258 21.4147 36.9375C21.4179 36.9248 21.4179 36.9115 21.4147 36.8989C21.4257 36.8086 21.4119 36.7169 21.3749 36.6341C21.2135 36.1245 21.0512 35.6141 20.8879 35.1027C20.8269 34.9142 20.7955 34.7078 20.68 34.5372C20.5515 34.0434 20.3103 33.5949 20.1162 33.1237C19.839 32.448 19.5617 31.776 19.2799 31.1022C19.2256 30.9496 19.1705 30.7966 19.1144 30.6433L18.8233 29.8894C18.8326 29.7706 18.7595 29.6783 18.718 29.5784C18.4555 28.9479 18.2984 28.2779 18.0156 27.655C18.0121 27.6446 18.0077 27.6345 18.0027 27.6248C17.9666 27.409 17.8428 27.2262 17.7809 27.0198C17.7402 26.8869 17.7143 26.7569 17.8733 26.6843C18.6505 26.3394 19.4286 26.2414 20.2317 26.6117C20.6959 26.8357 21.0994 27.1718 21.4073 27.5909C21.4175 27.6433 21.4461 27.6902 21.4877 27.7228C21.4921 27.7465 21.5014 27.769 21.5149 27.7888C21.5285 27.8087 21.546 27.8253 21.5662 27.8378L21.7326 28.1318C21.7353 28.159 21.7409 28.1859 21.7492 28.2119C22.1328 29.0695 22.1845 29.9308 21.7751 30.7969C21.5883 31.0675 21.3813 31.323 21.1559 31.5612C21.0981 31.5991 21.0538 31.6549 21.0293 31.7204C20.8916 31.9905 20.8105 32.2867 20.7911 32.5904C20.7717 32.8941 20.8144 33.1986 20.9166 33.4846C21.0313 33.8383 21.2633 34.1403 21.5727 34.3384C21.601 34.3801 21.6441 34.4088 21.6929 34.4185C22.3084 34.917 23.4959 34.8341 24.055 34.2536C24.1481 34.2034 24.2292 34.133 24.2925 34.0472C24.8654 33.5776 25.3528 33.0088 25.7324 32.3669C25.7841 32.3518 25.8017 32.3028 25.8248 32.2633C26.1458 31.7269 26.3802 31.1415 26.5189 30.5293C26.8265 29.2832 26.7421 27.9701 26.2777 26.7757C26.1178 26.3629 25.9533 25.9483 25.6492 25.6147C25.5227 25.4158 25.3731 25.2333 25.2038 25.0709C24.8147 24.562 24.3009 24.2133 23.7611 23.8967C23.4839 23.6554 23.1475 23.5197 22.8092 23.3982C22.7549 23.3574 22.6913 23.3314 22.6244 23.3228C21.3706 22.9335 20.0473 22.8346 18.7512 23.0335C17.9296 23.1522 17.1173 23.3105 16.3484 23.6347C16.3378 23.6381 16.3276 23.6426 16.3179 23.6479L16.2338 23.6837C16.0379 23.7619 15.8429 23.8449 15.6442 23.9165C15.0499 24.1285 14.476 24.3877 13.9049 24.6572C13.6772 24.7515 13.463 24.8767 13.2681 25.0295L13.0279 25.1972C12.7885 25.3168 12.5663 25.469 12.3671 25.6495C12.0567 25.8451 11.7903 26.1052 11.5852 26.4129C11.4172 26.6203 11.2655 26.8408 11.1315 27.0726C11.1126 27.0951 11.0986 27.1214 11.0901 27.1498C11.0817 27.1782 11.0791 27.208 11.0825 27.2375C11.0859 27.2669 11.0952 27.2953 11.1098 27.321C11.1244 27.3466 11.1441 27.3688 11.1675 27.3864C11.3468 27.5419 11.5289 27.6955 11.71 27.85L12.5279 28.7236L12.7358 29.0158C13.0081 29.4475 13.2381 29.9055 13.4225 30.3832C13.5214 30.6659 13.6489 30.9326 13.7635 31.2068C13.8116 31.4274 13.9354 31.6158 14.0158 31.8222C14.0316 31.9877 14.0851 32.1471 14.172 32.2878C14.2958 32.6412 14.4234 32.9927 14.5416 33.3479C14.6653 33.7596 14.8198 34.161 15.0037 34.5486C15.0122 34.6114 15.0378 34.6705 15.0777 34.7191C15.0853 34.7954 15.1106 34.8687 15.1516 34.933C15.3891 35.4523 15.561 35.997 15.7569 36.5351C16.0758 37.4097 16.365 38.2964 16.7791 39.1333C17.1228 39.8269 17.5027 40.4932 18.0378 41.0548C18.3546 41.4626 18.7835 41.7648 19.2697 41.9228ZM20.6643 34.6663V34.6852L20.6587 34.6748L20.6643 34.6663ZM18.6098 30.0147V30.0222H18.6052L18.6098 30.0147ZM17.8151 26.2272C17.8105 26.2498 17.798 26.2699 17.7799 26.2838C17.79 26.2639 17.8018 26.245 17.8151 26.2272ZM13.0667 28.9451L13.0602 28.9328H13.0694L13.0667 28.9451ZM13.8411 24.9871C13.8402 24.9827 13.8402 24.9782 13.8411 24.9739C13.8406 24.9782 13.8406 24.9827 13.8411 24.9871ZM13.8411 24.7778H13.8531V24.7863L13.8411 24.7778ZM15.1571 34.296H15.1461L15.1507 34.2875L15.1571 34.296ZM15.2819 34.4666V34.4619V34.4666ZM16.5378 37.7649H16.548C16.5505 37.7691 16.5527 37.7735 16.5545 37.7781L16.5378 37.7649ZM17.9971 27.8397C17.9986 27.8401 18.0002 27.8401 18.0017 27.8397V27.8453L17.9971 27.8397Z"/>
<path fill="#972020" d="M43.4977 22.2662C43.3184 22.4707 43.3239 22.5876 43.5226 22.7733L43.5642 22.8157C43.749 22.9843 43.8914 22.9749 44.067 22.7817C44.2425 22.5885 44.2296 22.4048 44.0309 22.2229C43.8322 22.041 43.6705 22.0702 43.4977 22.2662Z"/>
<path fill="#972020" d="M43.0444 21.5237C43.0444 21.3465 42.8393 21.1637 42.6526 21.1722C42.5638 21.1814 42.481 21.2223 42.4188 21.2876C42.3566 21.353 42.319 21.4385 42.3125 21.5293C42.3164 21.6241 42.3552 21.7139 42.4211 21.7808C42.4871 21.8477 42.5753 21.8868 42.6683 21.8903C42.7648 21.889 42.8573 21.8505 42.9271 21.7824C42.9969 21.7144 43.0388 21.622 43.0444 21.5237Z"/>
<path fill="#972020" d="M44.637 12.9597C44.7601 13.0983 44.8959 13.2246 45.0427 13.3367C45.1887 13.5308 45.3957 13.6562 45.5648 13.8258C45.807 14.068 46.002 14.3507 46.2386 14.5976C46.2775 14.6773 46.3326 14.7477 46.4003 14.804C46.5121 14.9981 46.6249 15.1913 46.7376 15.3854C46.9827 15.9037 47.1612 16.452 47.269 17.0167C47.3993 17.6962 47.4538 18.3785 47.269 19.0598C47.2468 19.1399 47.1766 19.2483 47.2949 19.2945C47.3928 19.3312 47.4797 19.2672 47.5111 19.1597L47.598 19.041C47.7122 18.9432 47.8081 18.8251 47.8808 18.6923C48.0006 18.5585 48.0983 18.4057 48.1701 18.24C48.2361 18.155 48.2783 18.0534 48.2921 17.9459C48.3096 17.8932 48.3272 17.8394 48.3438 17.7867C48.5712 17.4396 48.7364 17.0542 48.8318 16.6483C49.0083 16.2734 49.1461 15.8808 49.243 15.4769C49.2966 15.4335 49.2976 15.3657 49.3123 15.3072C49.438 14.7927 49.5831 14.2829 49.682 13.7627C49.7809 13.2283 49.9593 12.7109 49.9879 12.1606C50.1302 11.6837 50.1681 11.1814 50.3178 10.7055C50.324 10.695 50.3268 10.6829 50.3261 10.6707C50.3918 10.4021 50.4565 10.1326 50.5221 9.86398C50.657 9.3155 50.8067 8.7708 50.9213 8.21856C51.0257 7.71344 51.1902 7.2234 51.2642 6.71073C51.3048 6.56372 51.3511 6.41765 51.3862 6.26875C51.4435 6.02373 51.5035 5.98604 51.7475 6.06237C52.0442 6.14153 52.3344 6.24425 52.6153 6.36959L52.8926 6.54205L53.3851 6.96235C53.3907 7.02361 53.4397 7.05659 53.4702 7.10089C53.7474 7.50611 53.9581 7.93584 53.9942 8.44002C54.045 9.14116 54.0228 9.83005 53.7104 10.4775C53.5423 10.8062 53.3215 11.1041 53.0571 11.3586C52.6153 11.6866 52.1505 11.958 51.5867 11.9976C51.4861 12.0155 51.3911 12.0575 51.3095 12.1201C50.5794 12.5762 50.2005 13.3979 50.3788 14.2565C50.4413 14.5797 50.5797 14.8826 50.7822 15.1393C50.9847 15.396 51.2452 15.5988 51.5414 15.7304C51.5576 15.7449 51.5765 15.7557 51.5971 15.7622C51.6176 15.7687 51.6393 15.7707 51.6606 15.7681C51.6975 15.7851 51.7351 15.8002 51.7734 15.8133C52.3066 15.9631 52.8334 15.835 53.3611 15.7737C53.7748 15.7412 54.1785 15.6283 54.5505 15.441C54.6975 15.3873 54.8481 15.3468 54.9904 15.279C55.4313 15.0829 55.8693 14.8784 56.2381 14.5524C56.3664 14.4763 56.4801 14.377 56.5735 14.2593C56.7696 14.1156 56.9455 13.9453 57.0966 13.7532C57.3053 13.5836 57.475 13.3693 57.5938 13.1256C57.8551 12.7602 58.074 12.3652 58.2463 11.9485C58.371 11.7474 58.4561 11.5233 58.4967 11.2889C58.5286 11.195 58.5433 11.096 58.5401 10.9967C58.8377 9.71319 58.6899 8.47395 58.1705 7.27617C58.0944 7.06707 57.9792 6.87503 57.8313 6.71073L57.591 6.32812C57.442 6.00982 57.2303 5.72624 56.9691 5.49505C56.4171 4.86706 55.7658 4.33795 55.0422 3.92974C54.9396 3.81006 54.7769 3.79121 54.6614 3.69414C54.6422 3.65668 54.6134 3.62518 54.5781 3.60296C54.5428 3.58074 54.5023 3.56862 54.4609 3.56786C54.4568 3.5635 54.4516 3.56033 54.446 3.55867C54.4403 3.55702 54.4343 3.55694 54.4285 3.55844C53.9544 3.2597 53.424 3.10043 52.899 2.93457C52.6014 2.84033 52.3177 2.69238 51.9989 2.6773C51.9751 2.66366 51.9504 2.65169 51.925 2.64149C50.5868 2.20045 49.2181 1.94601 47.8087 1.99407C47.2431 2.01292 46.6766 2.08831 46.1526 2.34087C46.0162 2.38579 45.8904 2.45893 45.7829 2.55573C45.6905 2.60851 45.6988 2.69332 45.7256 2.77531C45.9937 3.60729 46.124 4.479 46.111 5.35464C46.0993 5.38914 46.0943 5.42562 46.0962 5.46207C46.05 5.80981 46.0038 6.15849 45.9308 6.4987C45.843 6.88414 45.7746 7.27334 45.6988 7.66067C45.6945 7.6706 45.6914 7.68105 45.6896 7.69176C45.538 8.2261 45.4059 8.76515 45.2987 9.31079V9.39372L45.2876 9.43236C45.1695 9.7144 45.0866 10.0104 45.0408 10.3135C44.9817 10.6349 44.856 10.9421 44.8329 11.2719C44.6878 11.6922 44.6259 12.1361 44.4919 12.5583C44.4383 12.7468 44.4715 12.8702 44.637 12.9597ZM58.4829 11.1437V11.156H58.4773C58.4773 11.156 58.481 11.1475 58.4829 11.1437ZM58.0624 11.5386L58.0762 11.5216C58.067 11.5414 58.0568 11.5622 58.0466 11.582C58.0485 11.5664 58.0538 11.5516 58.0624 11.5386ZM54.2114 15.2252C54.1791 15.2447 54.1432 15.2569 54.106 15.2611L54.2114 15.2252ZM54.0931 10.5981C54.0829 10.6347 54.067 10.6694 54.0459 10.7008C54.0589 10.6669 54.0783 10.633 54.0931 10.5981ZM50.9278 6.54582V6.55053V6.54582ZM50.3012 10.6414V10.6509H50.2947L50.3012 10.6414ZM49.6543 12.2435C49.6543 12.2482 49.6543 12.252 49.6543 12.2567V12.2435ZM47.6396 17.3588C47.6391 17.3667 47.6391 17.3745 47.6396 17.3824L47.6313 17.373C47.6335 17.369 47.6359 17.3652 47.6387 17.3616L47.6396 17.3588ZM47.4871 18.501H47.4973C47.4945 18.5068 47.4915 18.5125 47.488 18.518C47.4877 18.5132 47.4871 18.5085 47.4862 18.5038L47.4871 18.501ZM46.5731 2.51521C46.5726 2.51674 46.5726 2.51839 46.5731 2.51992V2.51521ZM46.4123 4.49894H46.4049V4.48952L46.4123 4.49894ZM46.1665 6.00677C46.1743 6.01221 46.1809 6.01928 46.1859 6.0275H46.1628C46.1637 6.01996 46.1655 6.01148 46.1665 6.00394V6.00677ZM46.1582 6.38373H46.1637L46.1582 6.39127V6.38373ZM46.1323 5.55348H46.1267V5.54782L46.1323 5.55348ZM45.8393 2.58024C45.8397 2.57838 45.8397 2.57644 45.8393 2.57458H45.8439C45.8424 2.57446 45.8408 2.57414 45.8393 2.57364V2.58024Z"/>
<path fill="#972020" d="M41.9419 22.9063C41.9537 22.9968 41.9974 23.0799 42.0648 23.1401C42.1322 23.2003 42.2187 23.2335 42.3083 23.2335C42.3979 23.2335 42.4845 23.2003 42.5519 23.1401C42.6193 23.0799 42.6629 22.9968 42.6748 22.9063C42.6685 22.8084 42.6275 22.7162 42.5595 22.6468C42.4915 22.5775 42.4011 22.5357 42.3051 22.5293C42.2096 22.5355 42.1198 22.5773 42.0528 22.6469C41.9857 22.7165 41.9463 22.8088 41.9419 22.9063Z"/>
<path fill="#972020" d="M62.1401 29.3617H62.1355L62.1586 29.3495C62.13 28.7234 61.9745 28.1103 61.702 27.5485C61.6112 27.294 61.5019 27.0467 61.3749 26.8088C61.2455 26.5496 61.1337 26.2782 60.9248 26.0699C60.6626 25.729 60.3596 25.4229 60.0228 25.1586C59.8499 24.9626 59.6391 24.805 59.4036 24.6959C59.3871 24.6751 59.3678 24.6567 59.3463 24.6413C58.5966 24.2395 57.8093 23.9152 56.9962 23.6734C56.9222 23.6508 56.8308 23.5933 56.7531 23.681L56.7365 23.6885C56.718 23.6612 56.7032 23.632 56.6635 23.6225C56.3622 23.5556 56.0692 23.4548 55.7615 23.4171C54.6534 23.2711 53.5335 23.2427 52.4197 23.3323C51.8652 23.3822 51.3107 23.4407 50.7904 23.6461C50.5131 23.6357 50.2876 23.7677 50.0566 23.8939C49.7083 24.0085 49.3806 24.1801 49.0862 24.4019C48.7323 24.6601 48.7323 24.6601 48.869 25.0795C48.8738 25.1344 48.884 25.1887 48.8995 25.2416C49.0659 25.6251 49.1121 26.0294 49.138 26.4441C49.1713 26.968 49.1103 27.4882 49.1158 28.0103C49.1131 28.0167 49.1117 28.0236 49.1117 28.0306C49.1117 28.0375 49.1131 28.0444 49.1158 28.0508C49.0733 28.26 49.0391 28.4721 48.9846 28.6775C48.8981 28.9626 48.8447 29.2571 48.8256 29.5549C48.5539 30.6688 48.2785 31.7818 48.0133 32.8976C47.9393 33.2076 47.8488 33.5167 47.846 33.84C47.8155 34.0039 47.7868 34.1688 47.7536 34.3328C47.4496 35.8452 47.3325 37.3905 47.4052 38.9326C47.4125 39.3451 47.4898 39.7532 47.6334 40.1389C47.6497 40.233 47.6942 40.3196 47.761 40.3867C47.8277 40.547 47.9236 40.6928 48.0438 40.8165C48.2609 41.0521 48.5373 41.0992 48.8349 41.1472C49.8778 41.3072 50.9394 41.2906 51.977 41.0982C52.3772 41.1096 52.7478 40.9795 53.1174 40.8457C53.178 40.8383 53.2382 40.8276 53.2977 40.8136C53.9139 40.6321 54.5186 40.4118 55.1081 40.154C55.5212 39.9787 55.9399 39.8072 56.2873 39.5009L56.4093 39.4208C56.4875 39.3965 56.5597 39.3554 56.621 39.3002C56.6955 39.2729 56.7638 39.2302 56.8215 39.1748C57.1067 39.0309 57.3683 38.8427 57.5969 38.6169C57.644 38.5802 57.7032 38.5566 57.729 38.4954C57.9494 38.3499 58.1538 38.1809 58.339 37.9912C58.6976 37.7 59.0497 37.4031 59.3297 37.0281C59.4009 36.9442 59.4729 36.8613 59.5423 36.7764C60.0092 36.2283 60.4317 35.6424 60.8056 35.0245C60.8986 34.903 60.9794 34.7723 61.0468 34.6344C61.1651 34.4732 61.2586 34.2947 61.3241 34.1048C61.5874 33.4573 61.9007 32.8259 61.9996 32.1201C62.1052 31.7978 62.1613 31.4609 62.166 31.1211C62.2824 30.5356 62.2824 29.9322 62.166 29.3466L62.1401 29.3617ZM48.5022 32.1992V32.1644L48.5151 32.1738L48.5022 32.1992ZM48.8995 30.4973L48.9134 30.4803V30.4982L48.8995 30.4973ZM56.5193 23.9335V23.942C56.5193 23.942 56.5184 23.942 56.5193 23.9364V23.9335ZM52.5805 23.73V23.7347H52.575L52.5805 23.73ZM54.3429 40.1276H54.3484H54.3429ZM55.2467 39.8769L55.256 39.8722C55.256 39.8722 55.256 39.8722 55.256 39.8769H55.2467ZM56.194 39.2474V39.2417V39.2474ZM57.2623 38.7017V38.697C57.2623 38.697 57.2623 38.697 57.2623 38.7027V38.7017ZM57.0165 32.448C56.9537 32.5753 56.8557 32.694 56.8668 32.8514C56.8705 32.8612 56.8766 32.8699 56.8844 32.8768C56.8656 32.8829 56.8485 32.8937 56.8348 32.9082C56.8211 32.9227 56.8111 32.9404 56.8058 32.9598C56.7912 33.0125 56.773 33.0642 56.7513 33.1143C56.4635 33.6213 56.1414 34.1071 55.7874 34.5684L55.7532 34.6071C55.706 34.6589 55.6608 34.7098 55.6108 34.7607C55.3419 35.0434 55.0517 35.2941 54.7588 35.5457C54.7257 35.5672 54.6908 35.5855 54.6543 35.6003C54.5848 35.6344 54.5221 35.6814 54.4695 35.7389C54.4367 35.7816 54.3967 35.818 54.3512 35.8463L53.8448 36.129C53.8331 36.1179 53.8187 36.1101 53.8032 36.1064C53.7278 36.1015 53.6525 36.1161 53.5841 36.1488C53.2364 36.258 52.8728 36.3049 52.5093 36.2873C52.2968 36.2817 52.2265 36.2025 52.2219 35.9886C52.2098 35.7586 52.2184 35.528 52.2478 35.2997C52.3966 34.3667 52.6748 33.4677 52.9215 32.5602C52.9668 32.3934 53.0361 32.2313 53.0333 32.0522C53.0333 32.0428 53.0333 32.0334 53.0333 32.024C53.0906 31.9919 53.0953 31.9212 53.1082 31.8638C53.2283 31.3492 53.4058 30.8497 53.489 30.3229C53.598 29.635 53.8087 28.9668 53.8928 28.2723C53.9205 28.0452 54.0296 27.9773 54.2717 28.0028C54.5075 28.0433 54.7485 28.0404 54.9833 27.9943C54.9916 27.9894 54.9983 27.9822 55.0028 27.9736C55.0554 28.0518 55.1414 28.0556 55.2199 28.0725C55.6262 28.1454 56.0125 28.3061 56.353 28.5437C56.4121 28.5871 56.474 28.638 56.5581 28.6097L56.6006 28.6445L56.6875 28.7256C56.726 28.7659 56.7573 28.8128 56.7799 28.8641C56.8179 28.9415 56.8761 29.0067 56.9481 29.0526C56.9727 29.0684 56.9959 29.0863 57.0174 29.1063C57.0375 29.1442 57.0637 29.1783 57.0951 29.2072C57.0951 29.2147 57.1034 29.2213 57.1071 29.2298C57.1172 29.2449 57.1297 29.2583 57.144 29.2694V29.2741L57.1256 29.2854C57.0978 29.3928 57.1616 29.4738 57.2032 29.5596C57.2818 29.7068 57.3368 29.8659 57.3658 30.0308C57.4786 30.8695 57.401 31.679 57.0165 32.448ZM61.8 29.7481C61.8073 29.7465 61.8144 29.7443 61.8213 29.7415V29.7707C61.8138 29.7644 61.8075 29.7567 61.8028 29.7481H61.8Z"/>
<path fill="#972020" d="M44.7134 38.7546C45.1238 38.9817 45.4084 39.3276 45.4019 39.8035C45.3955 40.2794 45.5147 40.3529 45.9444 40.1022C45.9495 40.0977 45.9542 40.0926 45.9583 40.0872C46.2919 39.9929 46.3825 39.8695 46.3686 39.5293C46.3593 39.3298 46.3197 39.133 46.2512 38.9459C46.2422 38.9502 46.234 38.9563 46.2272 38.9638L46.2522 38.9487C46.1951 38.7482 46.0986 38.5615 45.9685 38.4003C45.743 38.0016 45.3844 37.7896 44.9694 37.6539C44.914 37.6011 44.841 37.619 44.7753 37.6058C44.5231 37.5568 44.2726 37.6058 44.0212 37.6209C43.9223 37.6275 43.8142 37.6143 43.792 37.4956C43.7699 37.3768 43.8678 37.3071 43.9686 37.2769C44.1395 37.2272 44.3167 37.2034 44.4944 37.2063C44.8419 37.1997 45.1737 37.2628 45.4537 37.4993C45.4805 37.5317 45.5168 37.5544 45.5572 37.5642C45.5976 37.574 45.64 37.5705 45.6783 37.554C45.705 37.5373 45.7251 37.5115 45.7347 37.481C45.7444 37.4506 45.743 37.4176 45.7309 37.3881C45.6653 37.1705 45.6385 36.9367 45.4685 36.7633C45.4079 36.649 45.3177 36.5539 45.2077 36.4884C45.0976 36.4229 44.972 36.3896 44.8447 36.392C44.6872 36.3809 44.5291 36.4036 44.3808 36.4587C44.2324 36.5137 44.097 36.5998 43.9833 36.7115C43.9242 36.7699 43.8549 36.8284 43.7652 36.7831C43.6756 36.7379 43.6858 36.6578 43.6895 36.5815C43.6927 36.2886 43.677 35.9958 43.6423 35.705C43.5432 34.3712 43.358 33.0456 43.0878 31.7366C43.0561 31.4705 42.9902 31.2097 42.8919 30.961C42.8893 30.9413 42.8827 30.9224 42.8725 30.9054C42.8378 30.658 42.7697 30.4167 42.6701 30.1883C42.6607 30.1407 42.6484 30.0938 42.6331 30.0479C42.4021 29.4523 42.2015 28.8425 41.9206 28.2705C41.6775 27.7758 41.4816 27.249 41.1092 26.8287L40.7848 26.3744C40.7458 26.2799 40.6886 26.1944 40.6166 26.1228C40.3213 25.6767 39.9607 25.2794 39.5473 24.9448C39.4207 24.821 39.2826 24.7099 39.1352 24.6131C38.8307 24.3303 38.4614 24.13 38.0613 24.0307L37.9744 23.9921C37.9603 23.9763 37.9407 23.9668 37.9199 23.9657C37.6001 23.8073 37.2813 23.6434 36.9098 23.6547C36.7945 23.6465 36.6799 23.6302 36.5669 23.6057C36.1871 23.4982 35.9052 23.6434 35.6741 23.9402C35.619 23.964 35.5743 24.0076 35.5485 24.0627C35.4945 24.0895 35.4517 24.1349 35.4274 24.1909C35.1076 24.5 35.0124 24.909 34.9348 25.3218C34.7934 25.7854 34.7999 26.2642 34.8147 26.7401C34.8147 26.8692 34.9071 27.0313 34.7564 27.117C34.6058 27.2028 34.5485 27.0086 34.4385 26.9634L34.3711 26.8692C34.36 26.7739 34.3145 26.6862 34.2435 26.6232C34.0917 26.3836 33.982 26.119 33.9192 25.841C33.8739 25.6073 33.8424 25.3698 33.8073 25.1342C33.8055 25.0954 33.7996 25.0568 33.7898 25.0193C33.7898 24.9429 33.7898 24.8675 33.7898 24.7912C33.7887 24.1168 33.8805 23.4455 34.0624 22.7971C34.0984 22.6727 34.2472 22.5144 34.1151 22.4201C33.9829 22.3259 33.8452 22.4908 33.7186 22.5653C33.7084 22.5709 33.7057 22.5879 33.7001 22.6001C33.5709 22.6317 33.4554 22.7055 33.3711 22.8103L33.3305 22.8518C33.2482 22.8574 33.2112 22.9234 33.1669 22.9799C33.0135 23.0848 32.8903 23.2296 32.8102 23.3993C32.7251 23.5661 32.6447 23.7357 32.5588 23.9025C32.5301 23.9562 32.4941 24.0203 32.4211 24.009C32.3481 23.9977 32.3471 23.9148 32.3407 23.8592C32.3361 23.8175 32.3361 23.7755 32.3407 23.7338C32.4072 23.2212 32.2279 22.7585 32.0634 22.2929C31.9534 21.916 31.874 21.5343 32.1133 21.1677C32.1369 21.1367 32.1496 21.0986 32.1496 21.0593C32.1496 21.0201 32.1369 20.982 32.1133 20.951C32.0542 20.8784 31.9766 20.9123 31.9045 20.9349C31.7936 20.9707 31.6808 21 31.5718 21.0424C31.2083 21.173 30.8994 21.426 30.6957 21.7595C30.5247 21.9405 30.4443 22.1695 30.3648 22.4004C30.3526 22.4562 30.3214 22.5057 30.2767 22.5402C30.232 22.5748 30.1768 22.592 30.1208 22.5888C30.0099 22.5804 29.9924 22.4814 29.9739 22.39C29.8316 21.6882 29.6883 20.9858 29.5441 20.2828C29.5081 20.1122 29.4619 19.9445 29.4148 19.7777C29.3981 19.7174 29.363 19.6533 29.2918 19.6523C29.2068 19.6523 29.1791 19.7164 29.1736 19.7928C29.1606 19.8201 29.1477 19.8465 29.1357 19.8738C28.9834 20.1404 28.858 20.422 28.7614 20.7144C28.6779 20.8746 28.6104 21.0428 28.5599 21.2167C28.5532 21.2278 28.5482 21.2399 28.5451 21.2525C28.4444 21.4994 28.3224 21.7388 28.3132 22.0149C28.1893 22.6586 28.1459 23.3032 28.3132 23.9468C28.3307 24.2635 28.498 24.5245 28.6163 24.8044C28.754 25.1305 28.9388 25.4367 29.01 25.7892C29.0811 26.1416 28.9222 26.3405 28.5599 26.3216C28.4509 26.316 28.3427 26.3 28.2346 26.2887C28.108 26.2481 27.9657 26.2067 27.8779 26.3348C27.7901 26.463 27.8954 26.5742 27.961 26.6769C28.1854 27.0194 28.4575 27.3267 28.7688 27.5892C28.8688 27.7252 28.9903 27.8433 29.1283 27.9388C29.1849 28.0071 29.2552 28.0623 29.3344 28.1009C29.6898 28.3879 30.0617 28.6532 30.448 28.8953C30.489 28.9537 30.5445 28.9998 30.6088 29.0291C30.6716 29.0706 30.7326 29.1149 30.7936 29.1535C31.5146 29.5667 32.2829 29.8877 33.0809 30.1091C33.1552 30.1563 33.2378 30.1883 33.324 30.2034C33.3794 30.2231 33.4672 30.2297 33.4617 30.2976C33.4561 30.3654 33.3693 30.3551 33.311 30.3626C33.0772 30.3937 32.8601 30.2929 32.6327 30.2684C31.839 30.0859 31.0622 29.8337 30.3112 29.5145C29.9092 29.3373 29.5164 29.1375 29.1255 28.9396C28.875 28.8096 28.7836 28.8557 28.7207 29.1281C28.7022 29.2091 28.668 29.2874 28.6486 29.3684C28.5562 29.7595 28.3714 30.1223 28.3122 30.5247C28.258 30.7339 28.2032 30.9431 28.1477 31.1523C28.1314 31.1827 28.1172 31.2142 28.1052 31.2466C27.8206 32.2483 27.6699 33.2784 27.5507 34.3094C27.4583 35.0708 27.437 35.8398 27.3853 36.605C27.3714 36.8142 27.2698 36.8745 27.0886 36.7699C27.053 36.7488 27.0203 36.7228 26.9916 36.6927C26.7633 36.4542 26.4694 36.3958 26.1598 36.4015C26.0605 36.3971 25.9616 36.4173 25.8716 36.4605C25.7816 36.5037 25.7033 36.5685 25.6432 36.6493C25.4721 36.8328 25.3543 37.0612 25.3031 37.309C25.2819 37.3938 25.232 37.4975 25.3272 37.5578C25.4224 37.6181 25.5009 37.5295 25.5619 37.4522C25.7039 37.369 25.8562 37.3056 26.0147 37.2637C26.3679 37.1697 26.7396 37.1759 27.0896 37.2817C27.2023 37.3128 27.2947 37.39 27.2642 37.5238C27.2337 37.6577 27.1191 37.6539 27.0128 37.6454C26.9454 37.6398 26.8779 37.6219 26.8095 37.619C26.3983 37.6021 25.9861 37.5823 25.6368 37.8678C25.3716 38.0044 25.1568 38.2245 25.024 38.4955C24.8069 38.7838 24.7468 39.1269 24.7043 39.4727C24.6581 39.8685 24.7043 39.9288 25.0693 40.0881C25.1571 40.1267 25.2394 40.1823 25.3262 40.2191C25.5222 40.3133 25.6377 40.2568 25.6395 40.0306C25.6387 39.7302 25.7134 39.4346 25.8567 39.1721C25.8772 39.1586 25.8948 39.1409 25.9083 39.1201C25.9219 39.0994 25.931 39.076 25.9353 39.0515C25.9741 39.0128 26.0111 38.9723 26.0517 38.9355C26.1561 38.8413 26.268 38.6726 26.4121 38.7838C26.5563 38.895 26.4168 39.043 26.3521 39.1542C26.1841 39.4362 26.0917 39.7582 26.0841 40.0881C26.0748 40.3906 26.1709 40.5263 26.4537 40.6064C26.6327 40.654 26.8161 40.6824 27.0008 40.6912C28.035 40.7628 29.0488 40.5612 30.07 40.4603C30.1256 40.4571 30.1792 40.4384 30.2251 40.4063C30.271 40.3743 30.3075 40.3301 30.3306 40.2785C30.4073 40.1079 30.4729 39.9335 30.5441 39.7601L31.0718 38.7075C31.2917 38.3023 31.5111 37.897 31.7298 37.4918L32.3056 36.654L33.3277 35.476C33.6493 35.1633 34.0116 34.8973 34.4043 34.6854C34.4432 34.6782 34.4815 34.6681 34.5189 34.6552C35.0198 34.4432 35.5309 34.3414 36.0688 34.4959C36.1278 34.5086 36.1878 34.5165 36.2481 34.5195C36.7751 34.714 37.2553 35.0212 37.6565 35.4204C38.0262 35.787 38.3496 36.2026 38.7156 36.5758L39.0852 37.1158C39.1377 37.2715 39.2229 37.4137 39.3348 37.5323C39.612 37.9715 39.8218 38.4474 40.112 38.8762C40.3144 39.3417 40.514 39.8073 40.7192 40.2709C40.7451 40.3303 40.7728 40.4038 40.8596 40.4019C40.8878 40.4217 40.919 40.4363 40.9521 40.4453C41.7265 40.5225 42.4954 40.6554 43.2736 40.6884C43.7032 40.7198 44.1351 40.6938 44.5582 40.6111C44.8613 40.5433 44.9768 40.3991 44.9713 40.0843C44.9712 39.7549 44.8712 39.4336 44.6848 39.1646L44.6035 38.9761C44.5489 38.8498 44.56 38.7631 44.7134 38.7546ZM29.0479 20.345V20.3525V20.345ZM29.1403 27.9209V27.9133V27.9209ZM30.4933 28.8859C30.4929 28.8821 30.4929 28.8783 30.4933 28.8746L30.5053 28.884L30.4933 28.8859ZM32.9321 23.6829V23.6556L32.9506 23.6603L32.9321 23.6829ZM26.8761 40.3812H26.8835H26.8761ZM28.8852 29.4664L28.9009 29.4438C28.9009 29.4542 28.9009 29.4636 28.9065 29.4749C28.912 29.4862 28.8843 29.489 28.8834 29.4655L28.8852 29.4664ZM31.1771 38.0959C31.1806 38.085 31.1846 38.0743 31.1892 38.0638C31.1939 38.0683 31.1992 38.0721 31.2049 38.0751L31.1771 38.0959ZM33.7741 25.3416C33.7741 25.3359 33.7741 25.3312 33.7741 25.3255V25.3416ZM34.725 34.2575H34.7306L34.737 34.2651L34.725 34.2575ZM39.4087 25.3048L39.3976 25.2878C39.4122 25.2992 39.4255 25.3122 39.4374 25.3265C39.4286 25.3185 39.4203 25.31 39.4124 25.301L39.4087 25.3048ZM40.636 26.6242H40.6425H40.636ZM42.7459 30.6962C42.7414 30.6947 42.7371 30.6928 42.7329 30.6906H42.745C42.745 30.6906 42.745 30.6962 42.745 30.6991L42.7459 30.6962ZM42.8614 31.0788L42.8503 31.0609L42.8623 31.0666L42.8614 31.0788Z"/>
<path fill="#972020" d="M42.0457 17.7393C41.7546 17.3981 41.4783 17.0372 41.0291 16.8958C40.7739 16.7569 40.4839 16.6986 40.196 16.7283C39.9082 16.758 39.6355 16.8744 39.4127 17.0626C39.2224 17.1635 39.1355 17.3453 39.0431 17.5338C38.9026 17.7346 38.9008 17.9749 38.8582 18.2029C38.8398 18.3094 38.7889 18.4451 38.8906 18.5139C38.9922 18.5827 39.0588 18.4376 39.1373 18.3867C39.3286 18.2604 39.3943 18.2877 39.4146 18.5271C39.4294 18.6977 39.4682 18.8551 39.6124 18.9625C39.6726 19.0604 39.7565 19.1407 39.8561 19.1959C39.9556 19.251 40.0674 19.279 40.1807 19.2772C40.6289 19.2942 40.9589 18.9691 41.0125 18.4602C41.0846 18.3141 40.9829 18.1926 40.9552 18.0616C40.9127 17.8589 40.9552 17.7939 41.1566 17.8203C41.4288 17.8497 41.694 17.9259 41.9413 18.0455C42.0207 18.1106 42.1261 18.1982 42.2056 18.119C42.31 18.0248 42.1889 17.923 42.1372 17.8363C42.1252 17.7911 42.1011 17.7449 42.0457 17.7393ZM39.9025 17.1653L39.9506 17.1776C39.9346 17.175 39.9188 17.1709 39.9035 17.1653H39.9025ZM40.836 17.94L40.8295 17.9334H40.836V17.94Z"/>
<path fill="#972020" d="M46.8166 25.2016C46.8677 25.1952 46.9166 25.1768 46.9596 25.1479C47.0026 25.1189 47.0384 25.0802 47.0643 25.0348C47.1391 24.9632 47.2167 24.8944 47.2879 24.819C47.555 24.5363 47.628 24.1744 47.6409 23.7956C47.6409 23.7428 47.6409 23.6721 47.5698 23.6655C47.5106 23.6608 47.5014 23.7249 47.4829 23.7673C47.4663 23.8058 47.4533 23.8459 47.4441 23.887C47.4038 24.0934 47.3193 24.2883 47.1966 24.4575C47.0739 24.6268 46.9161 24.7663 46.7343 24.8661L46.4044 24.9905C46.1613 25.0084 45.9164 25.049 45.6808 24.9415C45.3971 24.8124 45.3324 24.6456 45.4627 24.3572C45.593 24.0689 45.7399 23.7532 45.8776 23.4516C45.9955 23.3171 46.145 23.2153 46.312 23.1557C46.4574 23.0979 46.598 23.0283 46.7325 22.9474C46.9774 22.7938 46.9912 22.6647 46.8101 22.4461C46.7742 22.405 46.7432 22.3598 46.7177 22.3113C46.6382 22.1445 46.7112 22.0408 46.8914 22.0484C46.9839 22.0531 47.055 22.121 47.1474 22.0983C47.3877 22.1172 47.4644 22.0691 47.5097 21.8392C47.5818 21.4679 47.5051 21.1371 47.1844 20.9156C46.4913 20.4388 45.7196 20.4209 44.9377 20.5735C44.6494 20.6291 44.4914 20.9675 44.5274 21.2869C44.5281 21.3683 44.5577 21.4467 44.6107 21.5075C44.6638 21.5683 44.7366 21.6075 44.8158 21.6177C44.9572 21.6413 45.1013 21.6507 45.2436 21.6667C45.3287 21.6771 45.4109 21.6969 45.4285 21.7987C45.4439 21.8494 45.4416 21.9041 45.4221 21.9533C45.4025 22.0026 45.3669 22.0435 45.3213 22.0691C45.2436 22.1115 45.1559 22.1351 45.0764 22.1747C44.8915 22.2689 44.8758 22.3528 45.0043 22.529C45.034 22.5822 45.0673 22.6332 45.1041 22.6817C45.3582 22.9729 45.4525 23.2857 45.2464 23.6467C45.1899 23.6851 45.1479 23.7419 45.1272 23.8078L44.8407 24.149C44.6245 24.2753 44.4424 24.4505 44.2003 24.5438C43.753 24.7172 43.2964 24.7248 42.8316 24.6937C42.7715 24.6795 42.7124 24.6616 42.6523 24.6513C41.8824 24.5203 41.2078 24.2065 40.6635 23.6146C40.4306 23.3621 40.2827 23.0577 40.1182 22.7665C40.0918 22.6444 40.0569 22.5244 40.0138 22.4074C39.8363 22.0154 39.3964 21.941 39.0979 22.2463C38.7994 22.5516 38.7634 23.1755 39.0443 23.5308L39.0822 23.5703C39.1238 23.6448 39.1903 23.6957 39.2671 23.6514C39.3438 23.6071 39.2966 23.5251 39.28 23.4629C39.2417 23.3581 39.2241 23.2467 39.2282 23.135C39.2513 22.9634 39.3659 22.8607 39.5009 22.8909C39.6358 22.921 39.6395 23.0483 39.6691 23.1519C39.8298 23.7055 40.1771 24.1834 40.6496 24.5014C40.8181 24.6498 41.0143 24.762 41.2263 24.8313C41.3511 24.8869 41.473 24.9519 41.6015 24.9962C41.711 25.0324 41.8123 25.0905 41.8996 25.167C41.9868 25.2435 42.0583 25.337 42.1098 25.4419C42.3163 25.8277 42.6018 26.1636 42.9471 26.4267C42.9678 26.4532 42.991 26.4775 43.0164 26.4993C43.8066 27.076 44.8278 26.9648 45.5523 26.2241C45.6995 26.148 45.8211 26.0289 45.9017 25.882C45.9826 25.7374 46.0914 25.611 46.2215 25.5102C46.3515 25.4095 46.5002 25.3366 46.6585 25.2959C46.6904 25.2943 46.7214 25.2849 46.7489 25.2685C46.7764 25.2521 46.7996 25.2292 46.8166 25.2016ZM45.6651 23.0633H45.6586V23.0567L45.6651 23.0633ZM45.5449 23.9021V23.9106H45.5375L45.5449 23.9021ZM42.705 25.0329H42.6976H42.7022H42.705ZM45.2261 24.7785L45.1965 24.7634C45.2079 24.765 45.2184 24.7707 45.2261 24.7794V24.7785ZM45.4386 25.7539C45.3627 25.8241 45.2808 25.8871 45.1937 25.9423C45.1364 25.9857 45.0579 26.013 45.045 26.0969C44.9634 26.097 44.8834 26.1191 44.813 26.161C44.637 26.2303 44.4483 26.2596 44.2601 26.2467C44.0719 26.2339 43.8887 26.1792 43.7234 26.0865C43.4973 25.9545 43.2912 25.7898 43.1116 25.5974C43.0506 25.5352 42.9591 25.4712 43.0025 25.3694C43.046 25.2676 43.1458 25.3015 43.2243 25.3044C43.546 25.3039 43.8667 25.2682 44.1809 25.1979C44.2834 25.179 44.4036 25.1734 44.4516 25.0452C44.5801 25.0631 44.7224 24.9981 44.8352 25.1244C44.9827 25.2977 45.1747 25.4257 45.3897 25.4938C45.5246 25.5315 45.5348 25.6389 45.4368 25.7529L45.4386 25.7539Z"/>
</g>
<defs>
<clipPath id="clip0_2701_1734">
<rect fill="white" height="46" width="73"/>
</clipPath>
</defs>
</svg>